<mxfile host="app.diagrams.net" modified="2023-04-06T01:46:01.827Z" agent="Mozilla/5.0 (Windows NT 10.0; Win64; x64) AppleWebKit/537.36 (KHTML, like Gecko) Chrome/111.0.0.0 Safari/537.36" etag="ZyGmUeyTRq9EzF6JQMyX" version="21.1.4" type="github">
  <diagram name="第 1 页" id="-yg9oLlgfjmI9G8ZWWMS">
    <mxGraphModel dx="794" dy="470" grid="1" gridSize="10" guides="1" tooltips="1" connect="1" arrows="1" fold="1" page="1" pageScale="1" pageWidth="827" pageHeight="1169" math="0" shadow="0">
      <root>
        <mxCell id="0" />
        <mxCell id="1" parent="0" />
        <mxCell id="fpl1dmW2cC1oAPA8jiOE-1" value="&lt;b&gt;&lt;font style=&quot;font-size: 18px;&quot;&gt;领域模型维护&lt;/font&gt;&lt;/b&gt;" style="rounded=1;whiteSpace=wrap;html=1;fillColor=#d5e8d4;strokeColor=#82b366;fontColor=#808080;" vertex="1" parent="1">
          <mxGeometry x="60" y="315" width="120" height="60" as="geometry" />
        </mxCell>
        <mxCell id="fpl1dmW2cC1oAPA8jiOE-2" value="&lt;b&gt;&lt;font style=&quot;font-size: 18px;&quot;&gt;模板编辑&lt;/font&gt;&lt;/b&gt;" style="rounded=1;whiteSpace=wrap;html=1;fillColor=#d5e8d4;strokeColor=#82b366;fontColor=#808080;" vertex="1" parent="1">
          <mxGeometry x="60" y="525" width="120" height="60" as="geometry" />
        </mxCell>
        <mxCell id="fpl1dmW2cC1oAPA8jiOE-3" value="&lt;b&gt;&lt;font style=&quot;font-size: 18px;&quot;&gt;领域模型管理&lt;/font&gt;&lt;/b&gt;" style="rounded=1;whiteSpace=wrap;html=1;fillColor=#d5e8d4;strokeColor=#82b366;fontColor=#808080;" vertex="1" parent="1">
          <mxGeometry x="250" y="230" width="120" height="60" as="geometry" />
        </mxCell>
        <mxCell id="fpl1dmW2cC1oAPA8jiOE-5" value="用户界面" style="text;html=1;strokeColor=none;fillColor=none;align=center;verticalAlign=middle;whiteSpace=wrap;rounded=0;fontSize=20;" vertex="1" parent="1">
          <mxGeometry x="580" y="110" width="140" height="30" as="geometry" />
        </mxCell>
        <mxCell id="fpl1dmW2cC1oAPA8jiOE-6" value="&lt;h1&gt;管理员界面&lt;br&gt;&lt;/h1&gt;&lt;p style=&quot;font-size: 16px;&quot;&gt;&lt;b&gt;领域管理&lt;/b&gt;，领域增删改查&lt;br&gt;&lt;br&gt;&lt;/p&gt;" style="text;html=1;strokeColor=none;fillColor=none;spacing=5;spacingTop=-20;whiteSpace=wrap;overflow=hidden;rounded=0;" vertex="1" parent="1">
          <mxGeometry x="60" y="50" width="190" height="120" as="geometry" />
        </mxCell>
      </root>
    </mxGraphModel>
  </diagram>
</mxfile>
